Coordinates
version=1
nRows=60
nColumns=12
inDegrees=yes

Units are S.I. units (second, meters, Newtons, ...)
Angles are in degrees

endheader
time	SC_y	SC_z	SC_x	AC_y	AC_z	AC_x	GH_y	GH_z	GH_yy	EL_x	PS_y
       0.0              -16.64          24.98          35.91          35.27          9.255         -15.33          135.0          1.912         -83.42          69.55          68.84
  0.005354              -16.65          24.98           35.9          35.27          9.254         -15.33          135.0          1.924          -83.4          69.56          68.84
   0.01071              -16.65          24.98           35.9          35.27          9.254         -15.33          134.9          1.936         -83.39          69.57          68.84
   0.01606              -16.65          24.98           35.9          35.27          9.253         -15.33          134.9          1.949         -83.37          69.57          68.84
   0.02141              -16.66          24.98          35.89          35.27          9.252         -15.33          134.9          1.963         -83.34          69.58          68.84
   0.02677              -16.66          24.99          35.89          35.28          9.251         -15.33          134.9          1.978         -83.32          69.59          68.83
   0.03212              -16.67          24.99          35.89          35.28           9.25         -15.33          134.8          1.994          -83.3           69.6          68.83
   0.03748              -16.67          24.99          35.88          35.28          9.249         -15.33          134.8          2.011         -83.27          69.61          68.83
   0.04283              -16.67          24.99          35.88          35.28          9.248         -15.33          134.8          2.029         -83.24          69.62          68.83
   0.04818              -16.68          24.99          35.87          35.29          9.247         -15.33          134.7          2.048         -83.21          69.63          68.83
   0.05354              -16.69           25.0          35.87          35.29          9.245         -15.33          134.7          2.069         -83.18          69.65          68.83
   0.05889              -16.69           25.0          35.86          35.29          9.244         -15.33          134.7          2.091         -83.15          69.66          68.82
   0.06424               -16.7           25.0          35.86           35.3          9.242         -15.33          134.6          2.115         -83.11          69.67          68.82
    0.0696               -16.7          25.01          35.85           35.3          9.241         -15.33          134.6          2.142         -83.07          69.69          68.82
   0.07495              -16.71          25.01          35.84           35.3          9.239         -15.33          134.5           2.17         -83.03          69.71          68.82
   0.08031              -16.72          25.01          35.84          35.31          9.237         -15.33          134.4            2.2         -82.98          69.72          68.81
   0.08566              -16.73          25.02          35.83          35.31          9.235         -15.33          134.4          2.234         -82.93          69.74          68.81
   0.09101              -16.74          25.02          35.82          35.32          9.233         -15.34          134.3           2.27         -82.87          69.76          68.81
   0.09637              -16.75          25.03          35.81          35.32           9.23         -15.34          134.2           2.31         -82.81          69.79           68.8
    0.1017              -16.76          25.03           35.8          35.33          9.228         -15.34          134.2          2.353         -82.74          69.81           68.8
    0.1071              -16.77          25.04          35.79          35.34          9.225         -15.34          134.1          2.401         -82.67          69.84           68.8
    0.1124              -16.79          25.04          35.77          35.34          9.221         -15.34          134.0          2.453         -82.59          69.87          68.79
    0.1178               -16.8          25.05          35.76          35.35          9.218         -15.34          133.9          2.511          -82.5          69.91          68.79
    0.1231              -16.82          25.06          35.74          35.36          9.214         -15.34          133.7          2.575          -82.4          69.95          68.78
    0.1285              -16.84          25.07          35.72          35.37          9.209         -15.34          133.6          2.646         -82.29          69.99          68.77
    0.1338              -16.86          25.08          35.71          35.38          9.204         -15.34          133.5          2.726         -82.17          70.04          68.77
    0.1392              -16.88          25.09          35.68           35.4          9.199         -15.35          133.3          2.815         -82.03          70.09          68.76
    0.1446              -16.91           25.1          35.66          35.41          9.192         -15.35          133.1          2.915         -81.88          70.15          68.75
    0.1499              -16.94          25.12          35.63          35.43          9.185         -15.35          132.9          3.028          -81.7          70.21          68.74
    0.1553              -16.98          25.13           35.6          35.45          9.177         -15.35          132.6          3.157          -81.5          70.29          68.73
    0.1606              -17.01          25.15          35.56          35.47          9.168         -15.36          132.4          3.304         -81.28          70.38          68.71
     0.166              -17.06          25.17          35.52          35.49          9.158         -15.36          132.0          3.472         -81.02          70.48           68.7
    0.1713              -17.11          25.19          35.47          35.52          9.146         -15.37          131.7          3.667         -80.72          70.59          68.68
    0.1767              -17.17          25.22          35.42          35.55          9.131         -15.37          131.2          3.893         -80.37          70.73          68.66
     0.182              -17.24          25.25          35.35          35.59          9.115         -15.38          130.7          4.157         -79.96          70.88          68.63
    0.1874              -17.32          25.29          35.27          35.63          9.095         -15.38          130.2          4.469         -79.48          71.07           68.6
    0.1927              -17.42          25.34          35.18          35.69          9.072         -15.39          129.4           4.84         -78.91          71.29          68.57
    0.1981              -17.54          25.39          35.07          35.75          9.045          -15.4          128.6          5.284         -78.22          71.55          68.53
    0.2034              -17.68          25.46          34.94          35.83          9.011         -15.41          127.6          5.821         -77.39          71.87          68.48
    0.2088              -17.86          25.54          34.77          35.92           8.97         -15.43          126.3          6.477         -76.38          72.26          68.42
    0.2141              -18.08          25.64          34.57          36.04           8.92         -15.44          124.8          7.287         -75.13          72.74          68.34
    0.2195              -18.34          25.76          34.32          36.18          8.857         -15.46          122.9          8.297         -73.57          73.34          68.25
    0.2249              -18.68          25.92          34.01          36.36          8.777         -15.49          120.5           9.57         -71.61          74.09          68.13
    0.2302              -19.11          26.12           33.6          36.59          8.676         -15.53          117.4          11.19         -69.12          75.05          67.98
    0.2356              -19.67          26.37          33.09          36.89          8.547         -15.57          113.5          13.26         -65.92          76.28          67.79
    0.2409              -20.37           26.7          32.43          37.27          8.381         -15.63          108.5          15.91         -61.82          77.85          67.54
    0.2463              -21.28          27.11          31.59          37.75          8.169          -15.7          102.1          19.31         -56.59          79.86          67.23
    0.2516              -22.41          27.64          30.53          38.36          7.903         -15.79          93.99          23.58         -50.01          82.39          66.83
     0.257               -23.8          28.28          29.24          39.11          7.578          -15.9          84.14          28.78         -41.99          85.48          66.35
    0.2623               -25.4          29.02          27.74          39.97          7.202         -16.03          72.74           34.8         -32.69          89.05          65.79
    0.2677              -27.14          29.82          26.12           40.9          6.795         -16.17          60.38          41.33         -22.62          92.92          65.18
     0.273              -28.88          30.62           24.5          41.83          6.387         -16.31          48.03          47.86         -12.55          96.79          64.58
    0.2784              -30.49          31.36           23.0          42.69          6.011         -16.44          36.62          53.88         -3.256          100.4          64.02
    0.2837              -31.87           32.0          21.71          43.43          5.686         -16.55          26.78          59.08          4.766          103.4          63.54
    0.2891              -33.01          32.52          20.65          44.04           5.42         -16.64           18.7          63.35          11.35          106.0          63.14
    0.2945              -33.91          32.94          19.81          44.53          5.208         -16.71          12.28          66.74          16.58          108.0          62.82
    0.2998              -34.62          33.26          19.15          44.91          5.042         -16.77          7.249           69.4          20.68          109.6          62.58
    0.3052              -35.17          33.52          18.63           45.2          4.913         -16.81          3.331          71.47          23.87          110.8          62.39
    0.3105               -35.6          33.72          18.23          45.44          4.812         -16.85         0.2692          73.09          26.37          111.7          62.24
    0.3159              -35.94          33.87          17.92          45.62          4.733         -16.87         -2.139          74.36          28.33          112.5          62.12
